<svg width="716" height="625" viewBox="0 0 716 625" fill="none" xmlns="http://www.w3.org/2000/svg">
<g clip-path="url(#clip0)">
<path fill-rule="evenodd" clip-rule="evenodd" d="M423.917 -245.694C522.511 -241.01 626.224 -204.369 686.423 -128.084C742.084 -57.5506 704.685 42.6032 720.584 130.242C733.366 200.7 781.072 263.199 770.248 333.968C758.255 412.371 720.022 487.191 658.126 538.58C593.299 592.402 507.438 637.626 423.917 621.51C342.965 605.891 317.748 503.452 248.585 459.558C172.911 411.532 40.9785 437.853 6.38815 356.526C-27.4975 276.856 83.3984 206.872 105.601 123.383C130.196 30.9015 79.079 -80.8256 142.142 -153.945C207.476 -229.699 322.53 -250.511 423.917 -245.694Z" fill="#84D4C8"/>
</g>
<defs>
<clipPath id="clip0">
<rect width="715.212" height="624.817" fill="white"/>
</clipPath>
</defs>
</svg>
